<?xml version="1.0" encoding="UTF-8" standalone="no"?>
<!-- Created with Inkscape (http://www.inkscape.org/) -->

<svg
   version="1.1"
   id="svg1"
   width="976"
   height="976"
   viewBox="200 280 480 280"
   sodipodi:docname="ELDDADY2_transprnt_Y2.svg"
   inkscape:version="1.4.3 (0d15f75, 2025-12-25)"
   xmlns:inkscape="http://www.inkscape.org/namespaces/inkscape"
   xmlns:sodipodi="http://sodipodi.sourceforge.net/DTD/sodipodi-0.dtd"
   xmlns="http://www.w3.org/2000/svg"
   xmlns:svg="http://www.w3.org/2000/svg">
  <defs
     id="defs1" />
  <sodipodi:namedview
     id="namedview1"
     pagecolor="#ffffff"
     bordercolor="#000000"
     borderopacity="0.25"
     inkscape:showpageshadow="2"
     inkscape:pageopacity="0.0"
     inkscape:pagecheckerboard="0"
     inkscape:deskcolor="#d1d1d1"
     inkscape:zoom="0.51536885"
     inkscape:cx="488.97018"
     inkscape:cy="456.95427"
     inkscape:window-width="1366"
     inkscape:window-height="705"
     inkscape:window-x="-8"
     inkscape:window-y="-8"
     inkscape:window-maximized="1"
     inkscape:current-layer="g2" />
  <g
     inkscape:groupmode="layer"
     inkscape:label="Image"
     id="g1">
    <g
       id="g2"
       transform="translate(19.403578,23.284294)">
      <path
         style="fill:#f26430"
         d="m 221.4342,522.59645 c -5.3895,-3.30184 -5.92031,-6.13714 -5.92031,-31.62329 0,-33.29525 -2.10587,-31.5 36.95034,-31.5 h 27.54966 v 5.5 5.5 h -25.96482 c -29.3114,0 -28.03518,-0.36418 -28.03518,8 0,8.36541 -1.28294,8 28.08744,8 h 26.01708 l -0.30226,5.25 -0.30226,5.25 -25.41865,0.26752 c -16.70557,0.17583 -25.87502,0.64628 -26.75,1.37245 -1.68797,1.40088 -1.78989,12.00148 -0.13135,13.66003 0.87121,0.87121 8.2566,1.2 26.95469,1.2 h 25.75468 l 0.63787,3.40013 c 1.41272,7.53042 3.16808,7.07033 -28.06055,7.35489 -25.93131,0.23629 -28.21287,0.11645 -31.06638,-1.63173 z m 74.19457,-0.21159 c -5.41863,-4.26229 -5.61488,-5.50009 -5.61488,-35.4143 v -27.60192 l 5.25,0.30226 5.25,0.30226 0.5,26.5 0.5,26.5 26.5,0.5 26.5,0.5 0.30226,5.25 0.30226,5.25 h -28.4174 c -27.30371,0 -28.52145,-0.0818 -31.07224,-2.0883 z m 68.62127,-30.1617 0.26385,-32.25 27.5,-0.2671 c 29.9944,-0.29132 31.55799,-0.0631 35.27595,5.14917 2.15035,3.0146 2.22405,3.91328 2.22405,27.11793 0,26.22901 -0.16702,27.10668 -5.81382,30.54977 -2.95605,1.80243 -5.2276,1.94302 -31.45003,1.94649 l -28.26386,0.004 z m 54.15686,19.66821 c 0.33385,-0.86998 0.60699,-10.03988 0.60699,-20.37755 0,-14.74703 -0.2968,-19.0421 -1.37788,-19.93931 -0.95923,-0.7961 -7.5676,-1.06117 -21.75,-0.87245 l -20.37212,0.2711 -0.27188,19.97179 c -0.14953,10.98448 -0.0512,20.54698 0.21862,21.25 0.37654,0.98126 5.35156,1.27821 21.41489,1.27821 18.15782,0 21.00465,-0.20914 21.53138,-1.58179 z m 21.60699,-19.91821 v -32.5 h 27.54966 c 29.99409,0 31.33735,0.21839 35.05184,5.69889 1.73582,2.56109 1.8966,4.85762 1.87633,26.80111 -0.0242,26.20449 -0.20182,27.14141 -5.79165,30.54977 -2.95237,1.80019 -5.22256,1.94303 -30.93618,1.94649 l -27.75,0.004 z m 53.39301,19.91821 c 0.33385,-0.86998 0.60699,-9.83318 0.60699,-19.91821 0,-10.08503 -0.27314,-19.04823 -0.60699,-19.91821 -0.52595,-1.37063 -3.32153,-1.58179 -20.94098,-1.58179 -15.16905,0 -20.53949,0.31751 -21.14301,1.25 -1.33657,2.0651 -1.66237,37.22124 -0.36737,39.64098 1.09142,2.03933 1.80138,2.10902 21.48655,2.10902 17.64118,0 20.43882,-0.21108 20.96481,-1.58179 z m 21.01421,11.20061 c -0.2915,-0.75965 -0.38988,-13.24715 -0.21861,-27.75 0.44896,-38.01844 -1.36678,-36.11005 33.93737,-35.66902 l 24.03114,0.3002 3.42144,3.73531 3.42144,3.73532 v 28.51468 28.51469 h -5 -5 v -12.3 c 0,-8.23333 -0.39675,-12.69675 -1.2,-13.5 -0.85238,-0.85238 -6.92551,-1.2 -20.96482,-1.2 -18.51743,0 -19.83014,0.12207 -20.8,1.93426 -0.56935,1.06384 -1.03518,7.13884 -1.03518,13.5 v 11.56574 h -5.03138 c -3.35748,0 -5.20772,-0.45951 -5.5614,-1.38118 z m 52.65852,-37.654 c 1.56895,-0.83968 1.93426,-2.12396 1.93426,-6.8 0,-3.17065 -0.54,-6.30482 -1.2,-6.96482 -0.8517,-0.8517 -6.88889,-1.2 -20.8,-1.2 -13.91111,0 -19.9483,0.3483 -20.8,1.2 -1.47145,1.47145 -1.58346,10.21497 -0.16482,12.86574 0.96779,1.80832 2.27425,1.93426 20.06575,1.93426 11.2059,0 19.82585,-0.42563 20.96481,-1.03518 z m 21.93426,6.53518 v -32.5 h 28.09571 c 39.22175,0 36.90429,-2.038 36.90429,32.45395 0,19.17952 -0.2865,24.1994 -1.51693,26.57878 -2.94023,5.68579 -4.61166,5.96727 -35.43341,5.96727 h -28.04966 z m 54.12626,18.75 c 1.26567,-3.23249 0.47316,-38.05058 -0.89729,-39.42103 -0.47933,-0.47934 -10.06444,-0.74945 -21.30024,-0.60025 l -20.42873,0.27128 -0.27188,19.97179 c -0.14953,10.98448 -0.0512,20.54698 0.21862,21.25 0.37615,0.98025 5.28225,1.27821 21.04663,1.27821 h 20.55613 z m 21.07148,8.5 0.30226,-5.25 25.99999,-0.25816 c 23.0175,-0.22854 26.1434,-0.45121 27.25,-1.94113 1.4915,-2.00807 1.6354,-8.15679 0.2748,-11.73561 l -0.9753,-2.5651 -21.7747,-0.0147 c -23.43958,-0.0159 -24.95466,-0.29615 -28.67839,-5.30536 -1.90526,-2.56297 -2.0964,-4.15857 -2.0964,-17.5 v -14.67994 l 4.75,-0.30479 4.75,-0.30479 0.11519,9.80479 c 0.063,5.39263 0.038,10.57461 -0.056,11.51551 -0.0943,0.9409 0.3197,2.6284 0.92,3.75 1.0422,1.94734 1.9802,2.03859 20.8062,2.02397 10.8432,-0.008 20.2627,-0.36345 20.9324,-0.78895 0.8235,-0.52329 1.3089,-4.80596 1.5,-13.23469 l 0.2824,-12.46105 5.25,-0.30226 5.25,-0.30226 v 27.65113 c 0,30.36855 -0.3454,32.45406 -5.9204,35.74733 -2.5381,1.49927 -6.2999,1.70606 -31.0361,1.70606 H 663.90937 Z M 424.07348,440.1718 c -8.00039,-2.5514 -14.04013,-11.56793 -14.05401,-20.98076 -0.0106,-7.15601 5.42178,-15.7549 12.19476,-19.3032 3.68599,-1.93105 14.16678,-1.80884 18.43155,0.21493 4.83608,2.29487 9.95442,8.6704 11.32252,14.1036 4.28715,17.02581 -11.07822,31.32841 -27.89482,25.96543 z m 82.93394,0.42275 c -10.53588,-3.43914 -15.99353,-10.64663 -15.99353,-21.12139 0,-7.99079 3.07987,-13.4 10.49458,-18.43176 3.20669,-2.17612 4.89646,-2.56824 11.06723,-2.56824 6.6948,0 7.63115,0.26576 11.59904,3.29217 7.91414,6.03632 10.92246,13.3363 9.3446,22.67558 -0.86356,5.11138 -5.81818,11.74325 -10.62831,14.22624 -4.16151,2.14818 -12.21386,3.12529 -15.88361,1.9274 z M 382.14991,402.89867 c -9.62369,-2.58868 -20.88518,-9.24259 -28.70229,-16.95887 -5.78097,-5.70642 -8.14746,-9.02547 -11.82458,-16.58423 -7.28962,-14.98466 -7.33959,-15.73794 -7.51445,-113.257 -0.0827,-46.13102 0.11747,-84.71852 0.44485,-85.75 0.54582,-1.71975 1.7931,-1.8754 15.02784,-1.8754 h 14.43261 l 0.0107,55.75 c 0.0124,64.55634 0.71991,119.43682 1.59538,123.74999 1.08231,5.3322 6.63258,14.54011 11.17395,18.53758 2.43417,2.14265 6.89894,4.82106 9.92171,5.95202 5.40179,2.02107 6.86887,2.05161 85.64709,1.78334 l 80.15116,-0.27294 5.54563,-2.60111 c 7.63911,-3.58304 12.04316,-7.73113 16.04627,-15.11367 l 3.4081,-6.28522 0.27099,-89.42282 c 0.19506,-64.36513 0.58598,-89.80237 1.39509,-90.77728 0.86667,-1.04427 4.23962,-1.29094 14.729,-1.07717 l 13.60492,0.27728 0.25535,90.4548 c 0.27962,99.05023 0.46103,95.56146 -5.64411,108.54519 -7.45147,15.84694 -22.41289,28.93404 -39.01181,34.12454 -2.52969,0.79103 -8.45813,1.71062 -13.17431,2.04353 l -8.57488,0.60528 -2.65551,-4.53128 c -5.17831,-8.83613 -13.51948,-13.81818 -24.31569,-14.52338 -5.07094,-0.33124 -8.58897,0.0224 -12.22024,1.22856 -5.59724,1.85911 -13.76137,8.55559 -17.1857,14.09628 l -2.13621,3.45647 -11.16844,-0.008 -11.16844,-0.008 -2.23359,-3.9119 c -5.02669,-8.80374 -15.96773,-15.01639 -26.50568,-15.05073 -11.59239,-0.0378 -20.95062,4.86192 -26.93989,14.10492 l -3.15767,4.87371 -7.08158,-0.0658 c -3.89488,-0.0362 -9.49538,-0.7151 -12.44557,-1.50868 z m 60.1525,-113.93435 c -20.44576,-4.44314 -40.91336,-23.5819 -47.97535,-44.86063 -2.52886,-7.61978 -2.70197,-9.29266 -2.75577,-26.63052 l -0.0574,-18.5 h 14.5 14.5 l 0.5,17 c 0.47243,16.06246 0.65376,17.31311 3.28811,22.67757 3.63701,7.40622 12.77275,15.89809 20.42731,18.98764 5.43796,2.19488 7.07425,2.33479 27.30708,2.33479 h 21.5225 l 6.48809,-3.1948 c 11.64875,-5.73596 19.66315,-16.02797 21.95293,-28.19169 0.55769,-2.96257 1.01398,-10.95007 1.01398,-17.75 v -12.36351 h 14.5 14.5 v 17.7899 c 0,20.27452 -0.95335,25.54361 -6.73254,37.2101 -5.54205,11.18779 -18.8525,24.29203 -30.28814,29.81893 -13.19039,6.37499 -18.07014,7.1613 -43.97932,7.08678 -14.92158,-0.0429 -24.59214,-0.51937 -28.71148,-1.41456 z"
         id="path2" />
    </g>
  </g>
</svg>
